<?xml version="1.0" standalone="no"?>
<!DOCTYPE svg PUBLIC "-//W3C//DTD SVG 20010904//EN"
 "http://www.w3.org/TR/2001/REC-SVG-20010904/DTD/svg10.dtd">
<svg version="1.0" xmlns="http://www.w3.org/2000/svg"
 width="480.000000pt" height="480.000000pt" viewBox="0 0 480.000000 480.000000"
 preserveAspectRatio="xMidYMid meet">
<metadata>
Created by potrace 1.11, written by Peter Selinger 2001-2013
</metadata>
<g transform="translate(0.000000,480.000000) scale(0.100000,-0.100000)"
fill="#000000" stroke="none">
<path d="M2359 4216 c-2 -2 -35 -6 -74 -10 -77 -6 -100 -10 -195 -32 -255 -57
-495 -190 -685 -378 -116 -115 -163 -171 -229 -274 -122 -188 -203 -409 -239
-652 -20 -129 -16 -482 7 -600 58 -306 162 -535 342 -750 263 -315 588 -490
1004 -540 107 -12 389 -4 495 14 337 60 630 235 852 510 90 112 215 328 198
344 -7 8 -486 212 -496 212 -5 0 -23 -28 -40 -62 -97 -194 -249 -347 -417
-419 -131 -57 -254 -81 -422 -82 -150 -1 -262 23 -384 84 -107 53 -166 97
-266 198 -119 119 -196 239 -245 376 -9 28 -20 57 -23 65 -3 8 -6 20 -7 25
-58 240 -58 478 0 695 50 183 140 338 279 475 185 184 377 271 610 278 389 12
677 -159 846 -504 l33 -66 251 105 c138 58 255 108 260 113 12 11 -64 163
-136 270 -35 51 -108 139 -163 195 -276 281 -566 400 -996 410 -86 1 -158 2
-160 0z"/>
</g>
</svg>
